# xmcd
# 
# Track frame offsets:
#     183
#     13745
#     26193
#     36290
#     53393
#     65908
#     79215
#     91935
#     109928
#     127030
#     143823
#     158850
# 
# Disc length: 2336
# 
# Revision: 16
# Processed by: cddbd v1.5.2PL0 Copyright (c) Steve Scherf et al.
# Submitted via: fre:ac v1.0.27
# 
DISCID=a4091e0c
DTITLE=The Rolling Stones - Hot Rocks 1964-1971 [CD 1)
DYEAR=1986
DGENRE=Rock
TTITLE0=Time Is On My Side
TTITLE1=Heart Of Stone
TTITLE2=Play With Fire
TTITLE3=Satisfaction
TTITLE4=As Tears Go By
TTITLE5=Get Off Of My Cloud
TTITLE6=Mother's Little Helper
TTITLE7=19th Nervous Breakdown
TTITLE8=Paint It Black
TTITLE9=Under My Thumb
TTITLE10=Ruby Tuesday
TTITLE11=Let's Spend The Night Together
EXTD=
EXTT0=
EXTT1=
EXTT2=
EXTT3=
EXTT4=
EXTT5=
EXTT6=
EXTT7=
EXTT8=
EXTT9=
EXTT10=
EXTT11=
PLAYORDER=
